<?xml version="1.0" standalone="no"?>
<!DOCTYPE svg PUBLIC "-//W3C//DTD SVG 20010904//EN"
 "http://www.w3.org/TR/2001/REC-SVG-20010904/DTD/svg10.dtd">
<svg version="1.0" xmlns="http://www.w3.org/2000/svg"
 width="600.000000pt" height="350.000000pt" viewBox="0 0 600.000000 350.000000"
 preserveAspectRatio="xMidYMid meet">

<g transform="translate(0.000000,350.000000) scale(0.100000,-0.100000)"
fill="#000000" stroke="none">
<path d="M513 2968 c8 -18 53 -131 102 -250 l88 -218 -102 -251 -101 -251 207
-454 206 -454 676 -2 675 -3 111 -262 c60 -145 112 -263 115 -263 3 0 100 224
216 498 l211 497 -447 3 -448 2 -36 83 c-20 45 -112 255 -204 467 l-168 385
320 3 c177 1 325 1 331 -2 6 -2 55 -117 110 -255 55 -138 102 -251 105 -251 7
0 210 492 210 507 0 6 -46 120 -103 254 l-104 244 -991 3 -992 2 13 -32z"/>
<path d="M3125 2968 c-7 -18 -56 -131 -109 -251 l-96 -217 315 -703 314 -702
252 0 251 0 92 227 c50 125 93 228 97 228 3 0 102 -223 220 -495 117 -272 216
-495 220 -495 3 0 204 436 447 970 l442 970 -108 247 -108 248 -227 0 -228 0
-221 -502 c-122 -277 -224 -503 -227 -503 -4 0 -51 113 -105 250 -55 138 -102
250 -105 250 -3 0 -55 -113 -115 -250 -60 -138 -112 -250 -115 -250 -3 0 -101
226 -217 503 l-211 502 -222 3 -222 2 -14 -32z"/>
</g>
</svg>
